<svg width="16" height="16" viewBox="0 0 16 16" fill="none" xmlns="http://www.w3.org/2000/svg">
<g clip-path="url(#clip0_237_2254)">
<path fill-rule="evenodd" clip-rule="evenodd" d="M9.99192 0.39337L8.464 6.87985L11.9702 1.2128C12.0788 1.03729 12.3226 1.00895 12.4686 1.15489L14.8451 3.53142C14.991 3.67735 14.9627 3.92122 14.7872 4.02982L9.12016 7.53603L15.6066 6.00808C15.8075 5.96076 16 6.11318 16 6.31956V9.68048C16 9.88688 15.8075 10.0393 15.6066 9.99192L9.12016 8.464L14.7872 11.9702C14.9627 12.0788 14.991 12.3226 14.8451 12.4686L12.4686 14.8451C12.3226 14.991 12.0788 14.9627 11.9702 14.7872L8.464 9.12016L9.99192 15.6066C10.0393 15.8075 9.8868 16 9.68048 16H6.31954C6.11316 16 5.96075 15.8075 6.00807 15.6066L7.53602 9.12016L4.02981 14.7872C3.92122 14.9627 3.67734 14.991 3.53141 14.8451L1.15489 12.4686C1.00895 12.3226 1.03729 12.0788 1.2128 11.9702L6.8798 8.464L0.393371 9.99192C0.192485 10.0393 0 9.88688 0 9.68048V6.31955C1.55931e-07 6.11317 0.192484 5.96076 0.393371 6.00808L6.87984 7.53602L1.2128 4.02982C1.03729 3.92123 1.00895 3.67735 1.15489 3.53142L3.53141 1.1549C3.67734 1.00896 3.92122 1.0373 4.02981 1.21281L7.53602 6.87986L6.00807 0.393371C5.96075 0.192485 6.11316 3.11862e-07 6.31954 2.9382e-07L9.68048 0C9.88688 0 10.0393 0.192484 9.99192 0.39337ZM8 8.91432C8.50496 8.91432 8.91432 8.50496 8.91432 8C8.91432 7.49506 8.50496 7.08571 8 7.08571C7.49506 7.08571 7.08571 7.49506 7.08571 8C7.08571 8.50496 7.49506 8.91432 8 8.91432Z" fill="black"/>
</g>
<defs>
<clipPath id="clip0_237_2254">
<rect width="16" height="16" fill="white"/>
</clipPath>
</defs>
</svg>
