<svg xmlns="http://www.w3.org/2000/svg" xmlns:xlink="http://www.w3.org/1999/xlink" viewBox="0,0,256,256" width="96px" height="96px"><g fill="#ffffff" fill-rule="nonzero" stroke="none" stroke-width="1" stroke-linecap="butt" stroke-linejoin="miter" stroke-miterlimit="10" stroke-dasharray="" stroke-dashoffset="0" font-family="none" font-weight="none" font-size="none" text-anchor="none" style="mix-blend-mode: normal"><g transform="scale(10.66667,10.66667)"><path d="M16,4c-1.458,0 -2.822,0.398 -4,1.082c-1.178,-0.684 -2.542,-1.082 -4,-1.082c-4.411,0 -8,3.589 -8,8c0,4.411 3.589,8 8,8c1.458,0 2.822,-0.398 4,-1.082c1.178,0.684 2.542,1.082 4,1.082c4.411,0 8,-3.589 8,-8c0,-4.411 -3.589,-8 -8,-8zM2,12c0,-3.309 2.691,-6 6,-6c0.798,0 1.559,0.16 2.257,0.444c-1.394,1.441 -2.257,3.398 -2.257,5.556c0,2.158 0.863,4.115 2.257,5.556c-0.698,0.284 -1.459,0.444 -2.257,0.444c-3.309,0 -6,-2.691 -6,-6zM16,18c-0.798,0 -1.559,-0.16 -2.257,-0.444c1.394,-1.441 2.257,-3.398 2.257,-5.556c0,-2.158 -0.863,-4.115 -2.257,-5.556c0.698,-0.284 1.459,-0.444 2.257,-0.444c3.309,0 6,2.691 6,6c0,3.309 -2.691,6 -6,6z"></path></g></g></svg>