<svg xmlns="http://www.w3.org/2000/svg" xmlns:xlink="http://www.w3.org/1999/xlink" viewBox="0,0,256,256" width="64px" height="64px"><g fill="#ffffff" fill-rule="nonzero" stroke="none" stroke-width="1" stroke-linecap="butt" stroke-linejoin="miter" stroke-miterlimit="10" stroke-dasharray="" stroke-dashoffset="0" font-family="none" font-weight="none" font-size="none" text-anchor="none" style="mix-blend-mode: normal"><g transform="scale(8,8)"><path d="M10,26c0,2.209 -1.791,4 -4,4c-2.209,0 -4,-1.791 -4,-4c0,-2.209 1.791,-4 4,-4c2.209,0 4,1.791 4,4zM30,2.5v6c0,0.276 -0.224,0.5 -0.5,0.5h-6c-0.276,0 -0.5,-0.224 -0.5,-0.5v-6c0,-0.276 0.224,-0.5 0.5,-0.5h6c0.276,0 0.5,0.224 0.5,0.5zM9.488,16.512l-3.488,3.488l-3.488,-3.488c-0.189,-0.189 -0.055,-0.512 0.212,-0.512h2.276v-8c0,-2.209 1.791,-4 4,-4h11.5c0.276,0 0.5,0.224 0.5,0.5v1c0,0.276 -0.224,0.5 -0.5,0.5h-11.5c-1.105,0 -2,0.895 -2,2v8h2.276c0.267,0 0.401,0.323 0.212,0.512zM29.276,15h-2.276v8c0,2.209 -1.791,4 -4,4h-10.5c-0.276,0 -0.5,-0.224 -0.5,-0.5v-1c0,-0.276 0.224,-0.5 0.5,-0.5h10.5c1.105,0 2,-0.895 2,-2v-8h-2.276c-0.267,0 -0.401,-0.323 -0.212,-0.512l3.488,-3.488l3.488,3.488c0.189,0.189 0.055,0.512 -0.212,0.512z"></path></g></g></svg>