<svg xmlns="http://www.w3.org/2000/svg" xmlns:xlink="http://www.w3.org/1999/xlink" viewBox="0,0,256,256" width="96px" height="96px"><g fill="#ffffff" fill-rule="nonzero" stroke="none" stroke-width="1" stroke-linecap="butt" stroke-linejoin="miter" stroke-miterlimit="10" stroke-dasharray="" stroke-dashoffset="0" font-family="none" font-weight="none" font-size="none" text-anchor="none" style="mix-blend-mode: normal"><g transform="scale(10.66667,10.66667)"><path d="M7.5,1c-1.381,0 -2.5,1.119 -2.5,2.5v17c0,1.381 1.119,2.5 2.5,2.5h9c1.381,0 2.5,-1.119 2.5,-2.5v-2c0,-0.276 -0.224,-0.5 -0.5,-0.5h-11.5v-14h11.5c0.276,0 0.5,-0.224 0.5,-0.5c0,-1.381 -1.119,-2.5 -2.5,-2.5zM17.23242,6c-0.129,0 -0.23695,0.09661 -0.25195,0.22461l-0.11719,1.01172c-0.484,0.168 -0.92078,0.42295 -1.30078,0.75195l-0.93555,-0.40625c-0.118,-0.051 -0.25631,-0.00458 -0.32031,0.10742l-0.9375,1.62109c-0.064,0.112 -0.03464,0.25408 0.06836,0.33008l0.80664,0.59766c-0.047,0.248 -0.07617,0.50172 -0.07617,0.76172c0,0.26 0.02817,0.51277 0.07617,0.75977l-0.80469,0.59961c-0.103,0.077 -0.13336,0.21908 -0.06836,0.33008l0.93555,1.62109c0.064,0.112 0.20231,0.15647 0.32031,0.10547l0.93555,-0.4043c0.379,0.328 0.81678,0.58395 1.30078,0.75195l0.11719,1.01172c0.014,0.129 0.12295,0.22461 0.25195,0.22461h1.87109c0.129,0 0.23695,-0.09661 0.25195,-0.22461l0.11719,-1.01172c0.484,-0.168 0.92078,-0.42295 1.30078,-0.75195l0.9375,0.40625c0.118,0.051 0.25436,0.00358 0.31836,-0.10742l0.9375,-1.62109c0.064,-0.112 0.03464,-0.25408 -0.06836,-0.33008l-0.80664,-0.59961c0.048,-0.247 0.07617,-0.49977 0.07617,-0.75977c0,-0.26 -0.02817,-0.51277 -0.07617,-0.75977l0.80469,-0.59961c0.103,-0.077 0.13336,-0.21908 0.06836,-0.33008l-0.93555,-1.62109c-0.064,-0.112 -0.20231,-0.15647 -0.32031,-0.10547l-0.93555,0.4043c-0.379,-0.328 -0.81678,-0.58395 -1.30078,-0.75195l-0.11719,-1.01172c-0.014,-0.129 -0.12295,-0.22461 -0.25195,-0.22461zM18.16797,9.25c0.966,0 1.75,0.783 1.75,1.75c0,0.966 -0.784,1.75 -1.75,1.75c-0.966,0 -1.75,-0.784 -1.75,-1.75c0,-0.967 0.784,-1.75 1.75,-1.75zM12,18.875c0.622,0 1.125,0.503 1.125,1.125c0,0.622 -0.503,1.125 -1.125,1.125c-0.622,0 -1.125,-0.503 -1.125,-1.125c0,-0.622 0.503,-1.125 1.125,-1.125z"></path></g></g></svg>