<svg xmlns="http://www.w3.org/2000/svg" xmlns:xlink="http://www.w3.org/1999/xlink" viewBox="0,0,256,256" width="96px" height="96px"><g fill="#ffffff" fill-rule="nonzero" stroke="none" stroke-width="1" stroke-linecap="butt" stroke-linejoin="miter" stroke-miterlimit="10" stroke-dasharray="" stroke-dashoffset="0" font-family="none" font-weight="none" font-size="none" text-anchor="none" style="mix-blend-mode: normal"><g transform="scale(10.66667,10.66667)"><path d="M12,3c-0.36568,0.00041 -0.70197,0.20039 -0.87695,0.52148l-7.96875,13.94336l0.00195,0.00195c-0.10141,0.15941 -0.15558,0.34428 -0.15625,0.5332c0,0.55228 0.44772,1 1,1h6l2,-11l2,11h6c0.55228,0 1,-0.44772 1,-1c0.00028,-0.1894 -0.05322,-0.37498 -0.1543,-0.53516l-7.95508,-13.91797c-0.17042,-0.33527 -0.51453,-0.54657 -0.89062,-0.54687zM14,19h-4l1.35352,2.60547c0.272,0.523 1.02001,0.523 1.29101,0z"></path></g></g></svg>